
<svg viewBox="0 0 1100 520" xmlns="http://www.w3.org/2000/svg" role="img" aria-label="GPU ray tracing pipeline">
  <defs>
    <marker id="arrow" markerWidth="10" markerHeight="8" refX="8" refY="4" orient="auto">
      <path d="M0,0 L10,4 L0,8 Z" fill="#9fe2ff"/>
    </marker>
    <style><![CDATA[
      .b{fill:rgba(255,255,255,0.06);stroke:#7cd2ff;stroke-opacity:.6;stroke-width:2}
      .t{font:700 14px ui-sans-serif,system-ui;fill:#e6e8ef}
      .s{font:12px ui-sans-serif,system-ui;fill:#cdd5f0}
      .a{stroke:#9fe2ff;stroke-width:3;marker-end:url(#arrow)}
    ]]></style>
  </defs>

  <g transform="translate(20,30)">
    <rect class="b" x="0" y="0" width="220" height="110" rx="12"/>
    <text class="t" x="12" y="24">Scene Geometry</text>
    <text class="s" x="12" y="48">Meshes, triangles, materials</text>
  </g>

  <g transform="translate(280,30)">
    <rect class="b" x="0" y="0" width="220" height="110" rx="12"/>
    <text class="t" x="12" y="24">Build Acceleration</text>
    <text class="s" x="12" y="48">BVH (TLAS / BLAS)</text>
    <text class="s" x="12" y="68">Refit or rebuild when moving</text>
  </g>

  <g transform="translate(540,30)">
    <rect class="b" x="0" y="0" width="220" height="110" rx="12"/>
    <text class="t" x="12" y="24">Ray Generation</text>
    <text class="s" x="12" y="48">Per pixel / per sample threads</text>
  </g>

  <g transform="translate(800,30)">
    <rect class="b" x="0" y="0" width="260" height="110" rx="12"/>
    <text class="t" x="12" y="24">Hardware Traversal</text>
    <text class="s" x="12" y="48">RT cores / ray units</text>
    <text class="s" x="12" y="68">Ray–box / Ray–triangle tests</text>
  </g>

  <g transform="translate(140,200)">
    <rect class="b" x="0" y="0" width="220" height="110" rx="12"/>
    <text class="t" x="12" y="24">Closest-Hit Shader</text>
    <text class="s" x="12" y="48">Shading, spawn reflection/</text>
    <text class="s" x="12" y="68">refraction/shadow rays</text>
  </g>

  <g transform="translate(400,200)">
    <rect class="b" x="0" y="0" width="220" height="110" rx="12"/>
    <text class="t" x="12" y="24">Miss Shader</text>
    <text class="s" x="12" y="48">Environment/sky color</text>
  </g>

  <g transform="translate(660,200)">
    <rect class="b" x="0" y="0" width="220" height="110" rx="12"/>
    <text class="t" x="12" y="24">Any-Hit Shader</text>
    <text class="s" x="12" y="48">Alpha masking / cutouts</text>
  </g>

  <g transform="translate(920,200)">
    <rect class="b" x="0" y="0" width="160" height="110" rx="12"/>
    <text class="t" x="12" y="24">Denoiser</text>
    <text class="s" x="12" y="48">NRR / AI-based</text>
  </g>

  <g transform="translate(330,370)">
    <rect class="b" x="0" y="0" width="440" height="110" rx="12"/>
    <text class="t" x="12" y="24">Final Frame</text>
    <text class="s" x="12" y="48">Composited, tone-mapped, gamma</text>
  </g>

  <!-- arrows -->
  <line class="a" x1="240" y1="85" x2="280" y2="85"/>
  <line class="a" x1="500" y1="85" x2="540" y2="85"/>
  <line class="a" x1="760" y1="85" x2="800" y2="85"/>
  <line class="a" x1="860" y1="140" x2="820" y2="200"/>
  <line class="a" x1="880" y1="140" x2="960" y2="200"/>

  <line class="a" x1="250" y1="255" x2="400" y2="255"/>
  <line class="a" x1="360" y1="255" x2="250" y2="255"/>
  <line class="a" x1="520" y1="255" x2="880" y2="255"/>
  <line class="a" x1="500" y1="310" x2="550" y2="370"/>
  <line class="a" x1="830" y1="310" x2="660" y2="370"/>
</svg>
