
<svg viewBox="0 0 1000 420" xmlns="http://www.w3.org/2000/svg" role="img" aria-label="Light energy mapping diagram">
  <defs>
    <filter id="glow"><feGaussianBlur stdDeviation="3" result="b"/><feMerge><feMergeNode in="b"/><feMergeNode in="SourceGraphic"/></feMerge></filter>
    <linearGradient id="grad" x1="0" x2="1">
      <stop offset="0%" stop-color="#7cd2ff"/><stop offset="100%" stop-color="#b7ffea"/>
    </linearGradient>
    <style><![CDATA[
      .box{fill:rgba(255,255,255,0.06);stroke:#7cd2ff;stroke-opacity:.6;stroke-width:2}
      .title{font: 700 15px ui-sans-serif,system-ui}
      .txt{font: 13px ui-sans-serif,system-ui; fill:#e6e8ef}
      .mut{fill:#9aa4c7;font: 12px ui-sans-serif,system-ui}
      .arrow{stroke:url(#grad);stroke-width:3;marker-end:url(#m) }
    ]]></style>
    <marker id="m" markerWidth="10" markerHeight="8" refX="8" refY="4" orient="auto">
      <path d="M0,0 L10,4 L0,8 Z" fill="#9fe2ff"/>
    </marker>
  </defs>

  <!-- Sun icon -->
  <circle cx="70" cy="80" r="26" fill="#ffd76b" filter="url(#glow)"/>
  <text x="30" y="130" class="mut">Real-world light</text>
  <text x="22" y="148" class="mut">(radiance W·sr⁻¹·m⁻²)</text>

  <!-- Boxes -->
  <g transform="translate(170,40)">
    <rect class="box" x="0" y="0" width="220" height="120" rx="12"/>
    <text class="title" x="12" y="24">Renderer (Linear)</text>
    <text class="txt" x="12" y="48">• Path tracing / light transport</text>
    <text class="txt" x="12" y="70">• Linear RGB or spectral units</text>
    <text class="mut" x="12" y="100">Conserves energy (physically-based)</text>
  </g>

  <g transform="translate(430,40)">
    <rect class="box" x="0" y="0" width="220" height="120" rx="12"/>
    <text class="title" x="12" y="24">Tone Mapping</text>
    <text class="txt" x="12" y="48">Compress HDR → display range</text>
    <text class="txt" x="12" y="70">Reinhard / Filmic / ACES</text>
    <text class="mut" x="12" y="100">Keeps highlights + midtones readable</text>
  </g>

  <g transform="translate(690,40)">
    <rect class="box" x="0" y="0" width="220" height="120" rx="12"/>
    <text class="title" x="12" y="24">Gamma Encode</text>
    <text class="txt" x="12" y="48">sRGB / Rec.709 (≈2.2)</text>
    <text class="txt" x="12" y="70">Convert to non-linear RGB</text>
    <text class="mut" x="12" y="100">What displays expect</text>
  </g>

  <!-- Monitor -->
  <g transform="translate(760,210)">
    <rect x="0" y="0" width="180" height="110" rx="10" fill="rgba(255,255,255,0.06)" stroke="#7cd2ff" stroke-opacity=".6" stroke-width="2"/>
    <rect x="40" y="92" width="100" height="8" rx="4" fill="#7cd2ff" opacity=".6"/>
    <text class="title" x="12" y="-8">Display</text>
    <text class="txt" x="12" y="24">Limited luminance (nits)</text>
    <text class="mut" x="12" y="44">Perceptual approximation</text>
  </g>

  <!-- Arrows -->
  <line x1="96" y1="80" x2="170" y2="80" class="arrow"/>
  <line x1="390" y1="80" x2="430" y2="80" class="arrow"/>
  <line x1="650" y1="80" x2="690" y2="80" class="arrow"/>
  <line x1="800" y1="160" x2="850" y2="210" class="arrow"/>
</svg>
